<svg width="212" height="55" viewBox="0 0 212 55" fill="none" xmlns="http://www.w3.org/2000/svg">
<path d="M48.6464 39.0532C48.6464 43.4493 47.1633 47.1716 44.1971 50.1238C41.2308 53.108 37.5395 54.5841 33.1231 54.5841H20.1046V33.4698H28.5089V46.8828H33.1231C35.3313 46.8828 37.144 46.1769 38.5612 44.7329C39.9784 43.2889 40.6705 41.3957 40.6705 39.0211C40.6705 36.6465 39.9784 34.7533 38.5612 33.3093C37.1769 31.8653 35.3642 31.1594 33.1231 31.1594H15.4904C12.8537 31.1594 10.4807 30.6459 8.3714 29.587C8.23957 29.5228 8.07478 29.4587 7.94295 29.3624C6.65757 28.6885 5.50403 27.7901 4.41641 26.699C3.65837 25.961 3.03216 25.1588 2.47187 24.3245C0.922832 21.982 0.0988748 19.2866 0 16.2381V15.0188C0.131833 10.8793 1.61496 7.38165 4.44937 4.55785C7.41561 1.5736 11.1069 0.0654297 15.4904 0.0654297H28.5089V21.1798H20.1046V7.76671H15.4904C13.2822 7.76671 11.4695 8.47266 10.0523 9.91666C8.63507 11.3606 7.94295 13.2539 7.94295 15.6284C7.94295 18.003 8.63507 19.8962 10.0523 21.3402C11.4365 22.7842 13.2492 23.4902 15.4904 23.4902H33.0901C37.5065 23.4902 41.1979 24.9662 44.1641 27.9505C47.1633 30.9347 48.6464 34.6249 48.6464 39.0532Z" fill="#4A4A4A"/>
<g clip-path="url(#clip0_11_1012)">
<path d="M47.6685 39.0485C47.6685 43.4593 46.2139 47.1539 43.3045 50.1326C40.3982 53.1102 36.7832 54.5996 32.4595 54.6005H19.7152V33.4958H27.9412V46.9117H32.4595C34.637 46.9117 36.4112 46.1925 37.7822 44.7543C39.1552 43.3211 39.8407 41.4191 39.8387 39.0485C39.8387 36.6778 39.1532 34.7738 37.7822 33.3366C36.4122 31.9004 34.638 31.1823 32.4595 31.1823H15.1969C12.78 31.2178 10.39 30.6747 8.22894 29.5988C8.0898 29.5297 7.95067 29.4546 7.8146 29.3795C6.53438 28.6669 5.36745 27.7698 4.35182 26.7174C1.59438 23.9165 0.0348699 20.1641 0 16.2463L0 15.0412C0.121011 10.8858 1.57166 7.38641 4.35195 4.54309C7.25823 1.56554 10.8732 0.0762437 15.1969 0.0751953H27.9412V21.1829H19.7152V7.7641H15.1969C13.0195 7.7641 11.2453 8.48221 9.87429 9.91842C8.50125 11.3547 7.81473 13.2577 7.81473 15.6273C7.81473 18.0009 8.50125 19.9048 9.87429 21.339C11.2442 22.7753 13.0185 23.4945 15.1969 23.4964H32.4595C36.7842 23.4964 40.3992 24.9837 43.3045 27.9584C46.2139 30.936 47.6685 34.6327 47.6685 39.0485Z" fill="#4A4A4A"/>
<path d="M77.2389 0H69.8865L62.0957 23.4553H68.6387L69.6504 20.0709H77.5086L78.5205 23.4553H85.0298L77.2389 0ZM71.2019 14.911L73.5627 6.93619L75.9573 14.911H71.2019Z" fill="#E97522"/>
<path d="M96.3611 1.95732e-08H86.749V15.5715H92.9547V5.79683H96.3611C97.1077 5.77046 97.8515 5.90167 98.5433 6.18182C99.2351 6.46196 99.8592 6.88466 100.375 7.42204C101.408 8.50566 101.926 9.94087 101.926 11.7277C101.926 13.5149 101.409 14.9502 100.375 16.0333C99.8593 16.5707 99.2352 16.9935 98.5433 17.2736C97.8515 17.5538 97.1077 17.6849 96.3611 17.6585H86.749V23.4553H96.3611C99.6208 23.4553 102.347 22.3328 104.54 20.0878C106.732 17.8427 107.828 15.056 107.828 11.7277C107.828 8.39947 106.732 5.61277 104.54 3.36756C102.347 1.12235 99.6212 -0.000171152 96.3611 1.95732e-08Z" fill="#E97522"/>
<path d="M120.239 1.95732e-08H110.627V5.79683H120.239C120.986 5.77046 121.729 5.90167 122.421 6.18181C123.113 6.46196 123.737 6.88466 124.252 7.42204C125.286 8.50575 125.803 9.94096 125.804 11.7277C125.804 13.5149 125.287 14.9502 124.252 16.0333C123.737 16.5707 123.113 16.9935 122.421 17.2736C121.729 17.5538 120.986 17.6849 120.239 17.6585H116.833V7.88382H110.627V23.4553H120.239C123.499 23.4553 126.225 22.3328 128.417 20.0878C130.61 17.8427 131.706 15.056 131.706 11.7277C131.706 8.39947 130.61 5.61277 128.417 3.36756C126.225 1.12235 123.499 -0.000171152 120.239 1.95732e-08Z" fill="#E97522"/>
<path d="M71.2691 31.0419C72.3741 31.013 73.4738 31.2025 74.5045 31.5994C75.5351 31.9963 76.4761 32.5927 77.2727 33.3539C78.8914 34.8956 79.7008 36.8615 79.701 39.2516C79.701 41.6422 78.8916 43.6079 77.2727 45.1487C76.4761 45.9101 75.5352 46.5066 74.5045 46.9035C73.4739 47.3004 72.3741 47.4898 71.2691 47.4607H68.1324V54.4976H62.0957V31.0419H71.2691ZM71.2691 41.7645C71.5867 41.7712 71.9021 41.7121 72.1954 41.5909C72.4886 41.4698 72.7533 41.2892 72.9723 41.0607C73.2037 40.8205 73.3842 40.5366 73.503 40.2259C73.6218 39.9151 73.6766 39.5838 73.6641 39.2516C73.6777 38.9217 73.6234 38.5926 73.5044 38.2844C73.3854 37.9761 73.2044 37.6953 72.9723 37.459C72.7507 37.2349 72.4853 37.0584 72.1923 36.9401C71.8994 36.8219 71.5852 36.7646 71.2691 36.7716H68.1324V41.7645H71.2691Z" fill="#B1B1B1"/>
<path d="M94.7429 31.042H100.746V54.4977H94.7429V45.4842H88.0983V54.4977H82.0615V31.042H88.0983V39.7204H94.7429V31.042Z" fill="#B1B1B1"/>
<path d="M124.743 51.4649C122.387 53.7319 119.236 54.9996 115.957 54.9996C112.677 54.9996 109.526 53.7319 107.171 51.4649C106.003 50.3387 105.081 48.9853 104.463 47.4891C103.844 45.993 103.544 44.3862 103.579 42.7693C103.544 41.1525 103.845 39.5457 104.463 38.0496C105.081 36.5534 106.003 35.2 107.171 34.0738C109.526 31.8067 112.677 30.5391 115.957 30.5391C119.236 30.5391 122.387 31.8067 124.743 34.0738C125.911 35.2001 126.833 36.5535 127.451 38.0497C128.069 39.5458 128.369 41.1525 128.334 42.7693C128.37 44.3862 128.069 45.9929 127.451 47.489C126.833 48.9852 125.911 50.3386 124.743 51.4649ZM111.403 47.3433C112.475 48.478 113.911 49.2059 115.465 49.4016C117.018 49.5973 118.592 49.2485 119.914 48.4153C121.237 47.5822 122.226 46.3168 122.71 44.8373C123.194 43.3578 123.144 41.7567 122.568 40.31C121.992 38.8632 120.926 37.6614 119.554 36.9116C118.182 36.1618 116.589 35.911 115.051 36.2023C113.513 36.4936 112.125 37.3089 111.127 38.5076C110.128 39.7064 109.582 41.2135 109.582 42.7693C109.554 43.6151 109.701 44.4576 110.014 45.2445C110.327 46.0314 110.8 46.7458 111.403 47.3433Z" fill="#B1B1B1"/>
<path d="M146.142 31.042V36.8387H140.307V54.4977H134.271V36.8387H128.436V31.042H146.142Z" fill="#B1B1B1"/>
<path d="M167.409 51.4649C165.053 53.7319 161.902 54.9996 158.623 54.9996C155.343 54.9996 152.192 53.7319 149.837 51.4649C148.669 50.3387 147.747 48.9853 147.129 47.4891C146.511 45.993 146.21 44.3862 146.245 42.7693C146.21 41.1525 146.511 39.5458 147.129 38.0496C147.747 36.5534 148.669 35.2 149.837 34.0738C152.192 31.8067 155.343 30.5391 158.623 30.5391C161.902 30.5391 165.053 31.8067 167.408 34.0738C168.577 35.2001 169.499 36.5535 170.117 38.0497C170.735 39.5458 171.036 41.1525 171 42.7693C171.036 44.3862 170.735 45.9929 170.117 47.489C169.499 48.9852 168.577 50.3387 167.409 51.4649ZM154.069 47.3433C155.141 48.478 156.577 49.2059 158.131 49.4016C159.684 49.5973 161.258 49.2485 162.58 48.4153C163.903 47.5822 164.892 46.3168 165.376 44.8373C165.86 43.3578 165.81 41.7567 165.234 40.31C164.658 38.8632 163.592 37.6614 162.22 36.9116C160.848 36.1618 159.255 35.911 157.717 36.2023C156.179 36.4936 154.791 37.3089 153.793 38.5076C152.794 39.7064 152.248 41.2135 152.248 42.7693C152.22 43.6151 152.367 44.4576 152.68 45.2445C152.993 46.0314 153.466 46.7458 154.069 47.3433Z" fill="#B1B1B1"/>
</g>
<defs>
<clipPath id="clip0_11_1012">
<rect width="171" height="55" fill="white"/>
</clipPath>
</defs>
</svg>
