<svg width="48" height="55" viewBox="0 0 48 55" fill="none" xmlns="http://www.w3.org/2000/svg">
<path d="M47.6685 39.0485C47.6685 43.4593 46.2139 47.1539 43.3045 50.1326C40.3982 53.1102 36.7832 54.5996 32.4595 54.6005H19.7152V33.4958H27.9412V46.9117H32.4595C34.637 46.9117 36.4112 46.1925 37.7822 44.7543C39.1552 43.3211 39.8407 41.4191 39.8387 39.0485C39.8387 36.6778 39.1532 34.7738 37.7822 33.3366C36.4122 31.9004 34.638 31.1823 32.4595 31.1823H15.1969C12.78 31.2178 10.39 30.6747 8.22894 29.5988C8.0898 29.5297 7.95067 29.4546 7.8146 29.3795C6.53438 28.6669 5.36745 27.7698 4.35182 26.7174C1.59438 23.9165 0.0348699 20.1641 0 16.2463L0 15.0412C0.121011 10.8858 1.57166 7.38641 4.35195 4.54309C7.25823 1.56554 10.8732 0.0762437 15.1969 0.0751953H27.9412V21.1829H19.7152V7.7641H15.1969C13.0195 7.7641 11.2453 8.48221 9.87429 9.91842C8.50125 11.3547 7.81473 13.2577 7.81473 15.6273C7.81473 18.0009 8.50125 19.9048 9.87429 21.339C11.2442 22.7753 13.0185 23.4945 15.1969 23.4964H32.4595C36.7842 23.4964 40.3992 24.9837 43.3045 27.9584C46.2139 30.936 47.6685 34.6327 47.6685 39.0485Z" fill="#4A4A4A"/>
</svg>
