<svg width="32" height="32" viewBox="0 0 32 32" fill="none" xmlns="http://www.w3.org/2000/svg">
<path d="M15.9991 20.2667C18.3555 20.2667 20.2658 18.3565 20.2658 16.0001C20.2658 13.6436 18.3555 11.7334 15.9991 11.7334C13.6427 11.7334 11.7324 13.6436 11.7324 16.0001C11.7324 18.3565 13.6427 20.2667 15.9991 20.2667Z" fill="#BBBDC1"/>
<path d="M11.9993 2.66699L9.55935 5.33366H5.33268C3.86602 5.33366 2.66602 6.53366 2.66602 8.00033V24.0003C2.66602 25.467 3.86602 26.667 5.33268 26.667H26.666C28.1327 26.667 29.3327 25.467 29.3327 24.0003V8.00033C29.3327 6.53366 28.1327 5.33366 26.666 5.33366H22.4393L19.9993 2.66699H11.9993ZM15.9993 22.667C12.3193 22.667 9.33268 19.6803 9.33268 16.0003C9.33268 12.3203 12.3193 9.33366 15.9993 9.33366C19.6793 9.33366 22.666 12.3203 22.666 16.0003C22.666 19.6803 19.6793 22.667 15.9993 22.667Z" fill="#BBBDC1"/>
</svg>
