<svg width="363" height="332" viewBox="0 0 363 332" fill="none" xmlns="http://www.w3.org/2000/svg">
<path d="M105.917 22.6619C94.8788 38.4841 107.821 64.1357 91.4427 76.0352C75.4996 87.6186 55.914 68.6319 40.8886 78.6028C18.5994 93.394 22.6698 161.076 55.2579 203.128C65.0582 215.774 73.247 220.695 76.8738 234.998C84.6615 265.709 57.2916 283.978 62.5 299.167C74.2276 333.368 254.589 362.066 326.959 259.282C360.758 211.277 365.815 141.958 335.616 89.3099C281.048 -5.82471 130.684 -12.8401 105.917 22.6619Z" fill="#F2F4F4"/>
<path d="M231.121 286.178C253.733 286.331 282.56 283.295 310.169 270.791C317.215 267.6 360.741 247.887 355.6 228.037C353.789 221.044 347.469 219.94 344.885 210.634C341.823 199.607 348.736 194.098 353.529 180.355C356.388 172.155 364.757 148.156 350.398 134.868C341.818 126.928 325.509 123.172 313.096 126.073C294.889 130.33 288.629 148.076 278.556 178.286C269.627 205.066 271.921 211.64 265.155 230.812C260.133 245.041 250.678 264.631 231.121 286.178Z" fill="#B3CEE0"/>
<path opacity="0.5" d="M174.32 298.539C161.225 298.539 147.824 296.725 134.225 293.099L134.499 292.066C159.244 298.662 183.321 299.222 206.063 293.728C236.357 286.41 262.635 268.237 284.167 239.716C306.596 210.006 318.258 176.512 324.092 153.646C328.129 137.825 327.349 120.305 321.776 101.573L322.799 101.268C328.429 120.188 329.212 137.899 325.127 153.911C319.269 176.872 307.556 210.509 285.019 240.361C263.335 269.085 236.854 287.39 206.313 294.768C195.836 297.289 185.096 298.555 174.32 298.539Z" fill="white"/>
<path opacity="0.5" d="M308.808 199.335L308.506 198.961C308.443 198.882 302.091 190.957 296.96 178.861C292.219 167.683 287.573 150.544 292.358 132.373L293.391 132.646C284.914 164.836 306.253 194.25 309.042 197.909C356.905 166.706 356.431 131.053 355.139 120.847C355.103 120.567 355.085 120.392 355.085 120.328L355.62 120.333L356.153 120.329C356.156 120.388 356.173 120.517 356.198 120.712C357.514 131.105 358.015 167.468 309.211 199.073L308.808 199.335Z" fill="white"/>
<path opacity="0.5" d="M303.27 241.47C297.117 241.452 290.974 240.984 284.889 240.07L284.606 240.028L284.484 239.77C284.353 239.493 271.426 211.699 274.262 173.912L277.12 135.83L278.185 135.91L275.327 173.992C272.659 209.549 284.04 236.169 285.332 239.054C301.506 241.399 324.802 241.786 344.516 230.509C356.369 223.729 361.364 215.826 361.413 215.747L362.321 216.311C362.116 216.641 357.169 224.486 345.108 231.403C336.49 236.344 322.833 241.47 303.27 241.47Z" fill="white"/>
<path d="M208.7 225.031C190.936 241.725 165.927 260.453 134.957 270.801C127.053 273.442 78.2287 289.755 67.7778 270.291C64.0965 263.435 68.2857 257.93 63.5237 248.677C57.8811 237.713 48.3878 238.425 34.5499 231.07C26.2929 226.682 2.12863 213.839 3.76399 192.808C4.74135 180.24 14.8873 165.318 26.8224 158.514C44.3287 148.535 62.2537 157.979 92.3073 174.485C118.949 189.116 121.942 195.996 141.31 206.196C155.684 213.767 177.483 222.328 208.7 225.031Z" fill="#CFE0ED"/>
<path opacity="0.5" d="M194.553 239.258C179.421 239.258 163.734 236.977 147.49 232.414C108.75 221.511 76.8269 200.304 56.8685 184.433C42.9664 173.378 32.1293 157.693 24.6582 137.814L25.4145 137.529C32.8334 157.269 43.5853 172.836 57.3714 183.799C77.2718 199.624 109.098 220.769 147.709 231.634C184.787 242.069 219.202 240.513 249.998 227.008C273.115 216.871 293.435 200.662 310.392 178.831L311.03 179.328C293.989 201.266 273.564 217.557 250.323 227.749C232.833 235.419 214.182 239.258 194.553 239.258Z" fill="white"/>
<path opacity="0.5" d="M87.4431 213.242C34.329 213.242 13.876 185.349 8.64173 176.268C8.52884 176.072 8.4574 175.945 8.42188 175.896L9.06249 175.402C9.16396 175.551 9.25725 175.705 9.34194 175.863C14.8931 185.495 37.7744 216.515 99.3712 211.984C99.3886 209.987 99.303 200.016 96.2152 187.813C93.0444 175.284 85.9681 157.767 70.261 145.474L70.7591 144.836C86.6533 157.276 93.8043 174.978 97.0046 187.638C100.469 201.342 100.177 212.264 100.174 212.372L100.162 212.736L99.7999 212.763C95.4999 213.089 91.381 213.249 87.4431 213.242Z" fill="white"/>
<path opacity="0.5" d="M138.472 240.943C77.7281 255.808 46.5309 229.633 38.0032 220.712C37.8193 220.519 37.702 220.394 37.6476 220.348L38.2422 219.604C38.3997 219.745 38.5495 219.895 38.6907 220.053C47.7348 229.514 82.5841 258.586 151.761 236.166C151.222 233.877 148.333 222.498 141.387 209.406C134.254 195.965 121.259 177.913 99.8553 168.249L100.247 167.38C121.905 177.159 135.038 195.403 142.241 208.985C150.038 223.688 152.76 236.26 152.787 236.386L152.876 236.805L152.469 236.937C147.643 238.513 142.977 239.848 138.472 240.943Z" fill="white"/>
<path d="M227.808 238.523C214.675 230.409 196.704 216.547 185.283 194.095C170.305 164.65 179.753 146.302 167.586 93.7616C159.894 60.5409 154.191 37.4345 134.838 28.3981C119.673 21.3168 97.9406 23.7238 86.8313 35.4168C77.5943 45.1392 74.6199 62.4197 75.0424 74.2358C75.3867 83.8659 78.0057 90.3753 73.641 96.3747C69.1804 102.506 62.6875 100.873 58.3185 105.631C49.4581 115.281 60.5468 139.004 62.3389 142.838C82.2744 185.486 129.698 207.325 150.5 216.601C167.698 224.271 193.837 233.836 227.808 238.523Z" fill="#FEB58A"/>
<path opacity="0.5" d="M242.106 244.18C221.398 240.784 203.08 235.431 187.663 228.271C164.846 217.674 149.069 203.373 140.771 185.767C134.282 171.997 132.403 156.02 130.025 135.792C128.053 119.024 128.166 106.971 128.266 96.3378C128.395 82.552 128.497 71.6632 123.886 56.8865C119.201 41.8742 111.051 27.658 99.6621 14.6328L100.27 14.0996C111.734 27.2102 119.939 41.5246 124.657 56.6451C129.306 71.5434 129.204 82.4884 129.074 96.3454C128.974 106.955 128.862 118.98 130.828 135.697C133.29 156.64 135.069 171.771 141.502 185.422C149.717 202.852 165.362 217.021 188.003 227.537C203.354 234.666 221.6 239.997 242.237 243.381L242.106 244.18Z" fill="white"/>
<path opacity="0.5" d="M129.116 123.885L128.901 123.482C113.957 95.4501 94.2187 80.029 80.2921 72.0284C65.2146 63.3667 53.5399 61.3043 53.4238 61.2845L53.5596 60.4866C53.6772 60.5067 65.4937 62.5938 80.6943 71.3263C94.6445 79.3404 114.386 94.7479 129.394 122.688C131.261 121.282 139.877 114.437 147.477 102.56C155.347 90.2615 163.706 69.8903 158.842 42.6837L159.638 42.541C164.551 70.0213 156.097 90.6006 148.139 103.026C139.517 116.488 129.589 123.552 129.49 123.622L129.116 123.885Z" fill="white"/>
<path opacity="0.5" d="M135.634 168.917L135.341 168.892C116.225 167.267 92.7306 146.425 76.3873 129.227C58.7134 110.628 45.3612 92.1716 45.2285 91.9874L45.8837 91.5137C46.0164 91.6976 59.3414 110.116 76.979 128.675C93.1408 145.681 116.309 166.27 135.119 168.059C136.119 165.735 143.457 149.01 153.888 133.548C165.123 116.895 196.837 105.469 197.156 105.356L197.427 106.118C197.11 106.231 165.643 117.569 154.558 134.001C143.419 150.512 135.823 168.466 135.748 168.645L135.634 168.917Z" fill="white"/>
<g style="mix-blend-mode:soft-light" opacity="0.5">
<g style="mix-blend-mode:soft-light" opacity="0.5">
<path d="M180.985 204.679C171.002 204.66 161.031 203.975 151.138 202.63C130.101 199.776 99.4106 192.468 72.6718 173.867L21.0371 137.946L21.4981 137.281L73.1328 173.202C99.7331 191.707 130.282 198.981 151.226 201.825C171.109 204.525 186.331 203.852 189.919 203.634C183.654 196.29 180.239 187.986 179.766 178.941C179.378 171.514 180.964 163.579 184.48 155.358C190.453 141.391 200.075 131.284 200.172 131.184L200.754 131.745C200.659 131.844 191.126 141.86 185.215 155.697C181.752 163.8 180.191 171.611 180.574 178.91C181.053 188.018 184.581 196.364 191.06 203.715L191.593 204.32L190.79 204.386C190.713 204.392 187.1 204.679 180.985 204.679Z" fill="white"/>
</g>
</g>
<path d="M229.129 233.187C227.662 231.189 218.835 219.551 204.864 219.066C193.168 218.661 184.224 226.292 182.152 228.06C173.809 235.179 174.773 240.857 168.034 243.162C160.032 245.899 154.289 239.391 149.114 243.148C145.544 245.74 144.498 251.58 145.946 255.652C148.486 262.8 159.313 266.207 167.523 264.498C178.835 262.143 179.09 251.347 191.934 247.878C199.398 245.863 201.572 248.899 209.511 246.951C218.73 244.689 225.128 238.307 229.129 233.187Z" fill="url(#paint0_linear_106_2863)"/>
<g style="mix-blend-mode:soft-light" opacity="0.5">
<g style="mix-blend-mode:soft-light" opacity="0.5">
<path d="M164.877 253.924C157.938 253.924 149.488 250.458 139.646 243.558L139.879 243.227C153.061 252.469 163.694 255.508 171.479 252.261C176.386 250.215 178.817 246.357 181.391 242.273C184.287 237.676 187.281 232.924 194.076 230.655C199.302 228.911 205.354 229.746 217.412 231.41C223.444 232.243 229.42 233.439 235.308 234.992L235.205 235.383C229.333 233.834 223.373 232.641 217.357 231.811C205.361 230.155 199.34 229.325 194.204 231.039C187.546 233.262 184.59 237.953 181.732 242.489C179.124 246.629 176.66 250.539 171.635 252.635C169.573 253.495 167.32 253.924 164.877 253.924Z" fill="white"/>
</g>
<g style="mix-blend-mode:soft-light" opacity="0.5">
<path d="M151.07 265.636L150.979 265.242C165.3 261.913 169.187 253.847 169.533 253.063C168.247 248.633 164.496 244.887 161.567 242.521C159.636 240.959 157.571 239.57 155.396 238.373L155.583 238.014C155.702 238.076 167.465 244.301 169.941 253.021L169.96 253.087L169.935 253.151C169.9 253.24 166.259 262.106 151.07 265.636Z" fill="white"/>
</g>
<g style="mix-blend-mode:soft-light" opacity="0.5">
<path d="M183.661 260.995C182.221 256.661 183.522 250.245 187.528 241.927C189.389 238.105 191.507 234.414 193.87 230.881C187.402 225.604 171.584 238.135 171.424 238.263L171.172 237.947C171.213 237.914 175.309 234.653 180.158 232.139C186.726 228.734 191.475 228.247 194.273 230.692L194.409 230.811L194.306 230.96C194.169 231.157 180.686 250.755 184.045 260.868L183.661 260.995Z" fill="white"/>
</g>
<g style="mix-blend-mode:soft-light" opacity="0.5">
<path d="M197.674 254.948C193.864 240.309 213.463 232.231 215.803 231.325C209.08 219.716 192.289 217.518 192.119 217.497L192.169 217.096C192.342 217.117 209.53 219.368 216.272 231.331L216.39 231.54L216.164 231.621C215.943 231.7 194.128 239.719 198.065 254.846L197.674 254.948Z" fill="white"/>
</g>
</g>
<path d="M294.137 43.0237C291.948 35.9248 288.527 32.4918 285.921 30.6771C280.338 26.7892 272.77 26.3448 272.981 24.8552C273.072 24.2093 274.569 23.7686 275.017 23.6368C277.208 22.9919 278.434 24.0999 279.653 23.3705C280.562 22.8267 280.808 21.6552 280.989 20.7379C281.902 16.0945 279.225 10.3805 277.803 6.19089C277.704 5.89888 277.48 5.22495 277.7 5.06513C277.937 4.89276 278.567 5.40651 278.779 5.57984C281.043 7.42611 283.869 15.6683 283.866 15.6691C283.865 15.6695 283.87 14.7243 283.018 12.0353C281.535 7.35033 279.923 5.17661 280.064 1.46013C280.091 0.734227 280.121 0.0813488 280.372 0.00691506C281.642 -0.369789 286.207 14.7709 287.051 14.4914C287.263 14.4213 287.145 13.4115 287.086 12.9087C286.536 8.21286 283.955 6.81041 284.174 3.01512C284.209 2.41793 284.259 1.54668 284.585 1.4545C285.68 1.1451 288.587 9.99467 290.03 14.0428C293.013 22.4441 295.412 31.042 297.21 39.7749C296.186 40.8578 295.162 41.9408 294.137 43.0237Z" fill="#FEB3B1"/>
<path d="M200.807 31.559C196.769 30.296 195.686 25.6159 195.258 23.7662C194.245 19.393 194.638 11.843 199.213 9.74972C202.887 8.06809 206.993 10.9462 207.502 11.3139C212.679 15.0546 211.707 22.2201 211.593 22.9698C211.338 24.6495 210.811 28.1152 207.768 30.2694C207.553 30.4214 204.3 32.6514 200.807 31.559Z" fill="#424242"/>
<g style="mix-blend-mode:multiply" opacity="0.3">
<path style="mix-blend-mode:multiply" opacity="0.3" d="M206.157 20.7976C203.481 18.1415 199.697 19.304 198.101 16.8866C197.305 15.6794 197.1 13.643 198.708 10.0176C194.612 12.42 194.284 19.562 195.257 23.768C195.685 25.6176 196.769 30.2978 200.807 31.5608C204.299 32.6531 207.553 30.4232 207.767 30.2712C207.901 30.1765 208.028 30.0785 208.152 29.9792C208.599 26.5025 208.343 22.9671 206.157 20.7976Z" fill="url(#paint1_linear_106_2863)"/>
</g>
<path d="M197.615 124.624C197.615 124.624 181.363 74.0127 181.418 54.9719C181.473 35.9311 198.06 28.5309 205.424 26.771C212.785 25.0118 228.399 26.947 233.205 48.3824C238.01 69.8111 234.542 117.856 234.542 117.856L197.615 124.624Z" fill="#424242"/>
<g style="mix-blend-mode:soft-light" opacity="0.3">
<path d="M211.11 73.668C222.818 72.2343 225.413 61.1654 236.176 59.8856C237.342 59.7474 238.519 59.7358 239.687 59.8511C239.525 57.7516 239.324 55.7322 239.078 53.8232C237.772 53.6599 236.452 53.6554 235.145 53.8098C224.381 55.0875 221.786 66.1563 210.076 67.5876C200.526 68.7551 196.265 62.1265 188.184 65.011C186.102 65.754 184.343 66.9238 182.861 68.2777C183.198 70.2021 183.586 72.2033 184.015 74.2549C185.527 72.8717 187.295 71.7984 189.219 71.0957C197.3 68.2098 201.56 74.8373 211.11 73.668Z" fill="#37383A"/>
</g>
<path style="mix-blend-mode:multiply" opacity="0.8" d="M212.109 93.0689C203.352 94.0723 199.346 87.3926 191.963 90.1323C190.62 90.6382 189.37 91.3613 188.262 92.2727C192.683 109.258 197.617 124.622 197.617 124.622L234.544 117.854C234.544 117.854 235.903 99.0272 235.741 79.6895C235.47 79.7037 235.206 79.7251 234.952 79.7536C225.079 80.8469 222.847 91.8387 212.109 93.0689Z" fill="#979797"/>
<path style="mix-blend-mode:multiply" opacity="0.3" d="M231.74 60.8461C221.866 61.9335 219.633 72.925 208.893 74.1487C200.133 75.1467 196.127 68.4639 188.742 71.1993C186.89 71.8852 185.325 72.979 184.004 74.2576C185.199 80.0609 186.698 86.2692 188.262 92.2757C189.37 91.3643 190.62 90.6412 191.963 90.1353C199.346 87.3956 203.352 94.0753 212.109 93.072C222.847 91.8417 225.079 80.8499 234.952 79.7567C235.206 79.7284 232.696 60.7409 231.74 60.8461Z" fill="#515356"/>
<path d="M148.045 160.494C140.92 151.199 150.724 130.156 161.486 118.3C174.006 104.508 190.034 100.711 200.203 98.4449C233.864 90.9432 244.663 106.191 261.654 97.4449C288.009 83.8779 282.225 36.7267 294.134 35.4238C303.914 34.3539 319.321 64.9014 315.067 95.195C311.766 118.701 289.439 141.824 266.898 152.119C250.545 159.587 253.028 157.604 215.793 159.758C172.631 162.255 155.069 169.656 148.045 160.494Z" fill="#EE6E23"/>
<path d="M188.512 101.367C195.421 98.875 206.716 98.3114 206.597 73.5922C206.597 73.5922 220.907 72.6859 221.449 72.8653C221.962 73.0349 217.659 97.5559 237.656 97.389C239.016 97.3776 239.373 99.2914 238.281 100.157C234.665 103.026 226.509 107.469 214.432 107.609C206.788 107.698 198.068 109.414 188.471 104.356C187.157 103.663 187.062 101.89 188.512 101.367Z" fill="#FEAEAB"/>
<path d="M237.476 148.107C233.427 148.158 234.831 113.896 222.718 63.5967C220.206 53.163 217.742 44.6566 215.998 38.9425C220.304 38.3906 224.608 37.8387 228.912 37.2871C236.392 51.6814 247.532 78.4658 245.411 113.173C244.414 129.491 240.455 148.07 237.476 148.107Z" fill="url(#paint2_linear_106_2863)"/>
<path d="M237.476 148.107C233.427 148.158 234.831 113.896 222.718 63.5967C220.206 53.163 217.742 44.6566 215.998 38.9425C220.304 38.3906 224.608 37.8387 228.912 37.2871C236.392 51.6814 247.532 78.4658 245.411 113.173C244.414 129.491 240.455 148.07 237.476 148.107Z" fill="#424242"/>
<path d="M192.506 59.0692C193.054 62.2912 195.586 86.1943 213.787 82.2438C230.409 78.636 226.034 61.7365 224.081 53.2009C224.081 53.2009 222.002 45.6001 216.028 44.6035C216.028 44.6035 221.964 47.921 223.514 57.5305C223.514 57.5305 221.354 52.6929 209.129 55.1569C196.895 57.6228 195.274 63.639 195.274 63.639C195.274 63.639 191.547 54.8636 196.941 48.7229C196.941 48.723 192.768 51.0295 192.506 59.0692Z" fill="#FC9F9D"/>
<g style="mix-blend-mode:multiply" opacity="0.3">
<path style="mix-blend-mode:multiply" opacity="0.3" d="M311.057 56.7285C313.336 69.9763 310.891 78.533 307.325 84.2928C299.295 97.263 285.099 96.865 267.62 117.337C257.836 128.798 257.202 134.876 251.12 143.67C248.328 147.707 244.68 151.892 239.807 155.931C252.945 156.297 255.486 157.326 266.895 152.115C289.436 141.82 311.763 118.697 315.064 95.191C316.997 81.4256 314.87 67.6085 311.057 56.7285Z" fill="#848484"/>
</g>
<path d="M315.285 158.419L85.955 150.497C84.8062 150.458 83.6611 150.65 82.5881 151.063C81.5151 151.476 80.5361 152.1 79.7093 152.9C78.8826 153.7 78.2252 154.658 77.7761 155.718C77.3271 156.777 77.0957 157.916 77.0957 159.067V307.065C77.0957 308.245 77.339 309.413 77.8103 310.494C78.2817 311.576 78.9709 312.549 79.8349 313.351C80.699 314.154 81.7192 314.769 82.8317 315.159C83.9442 315.549 85.125 315.704 86.3004 315.616L315.63 298.388C317.784 298.226 319.798 297.255 321.267 295.669C322.737 294.083 323.553 292 323.553 289.837V166.989C323.553 164.766 322.691 162.63 321.149 161.031C319.606 159.432 317.504 158.495 315.285 158.419Z" fill="#737373"/>
<path d="M319.23 158.419L89.9002 150.497C88.7514 150.458 87.6064 150.65 86.5333 151.063C85.4603 151.476 84.4813 152.1 83.6546 152.9C82.8279 153.7 82.1705 154.658 81.7214 155.718C81.2724 156.777 81.041 157.916 81.041 159.067V307.065C81.041 308.245 81.2843 309.413 81.7557 310.494C82.227 311.576 82.9162 312.549 83.7803 313.351C84.6443 314.154 85.6645 314.769 86.777 315.159C87.8895 315.549 89.0704 315.704 90.2457 315.616L319.575 298.388C321.73 298.226 323.743 297.255 325.213 295.669C326.682 294.083 327.499 292 327.499 289.837V166.989C327.499 164.766 326.636 162.63 325.094 161.031C323.551 159.432 321.449 158.495 319.23 158.419Z" fill="url(#paint3_linear_106_2863)"/>
<path d="M229.193 240.718L325.287 161.251C324.519 160.395 323.587 159.703 322.547 159.217C321.506 158.73 320.378 158.459 319.23 158.419L89.8998 150.498C87.8078 150.423 85.7613 151.121 84.1504 152.46L212.613 241.426C215.077 243.133 218.029 243.987 221.022 243.859C224.014 243.731 226.884 242.628 229.193 240.718Z" fill="#8A8A8A"/>
<path d="M229.194 240.722C226.884 242.632 224.015 243.734 221.022 243.862C218.029 243.99 215.077 243.136 212.613 241.43L84.1508 152.463C83.1772 153.266 82.3935 154.275 81.8558 155.418C81.3181 156.56 81.0398 157.808 81.041 159.071V307.069C81.041 308.249 81.2843 309.416 81.7557 310.498C82.227 311.58 82.9163 312.552 83.7803 313.355C84.6443 314.158 85.6645 314.773 86.777 315.163C87.8895 315.552 89.0704 315.708 90.2457 315.62L319.575 298.392C321.73 298.23 323.743 297.259 325.213 295.673C326.682 294.087 327.499 292.004 327.499 289.84V166.993C327.499 164.871 326.711 162.826 325.287 161.254L229.194 240.722Z" fill="#D2D2D2"/>
<g opacity="0.37">
<path d="M325.287 161.254L229.194 240.722C226.884 242.632 224.015 243.734 221.022 243.862C218.029 243.99 215.077 243.136 212.613 241.43L84.1508 152.463C83.1772 153.266 82.3935 154.275 81.8558 155.418C81.3181 156.56 81.0398 157.808 81.041 159.071V180.898C85.6823 178.944 89.6097 178.57 92.8021 178.837C101.628 179.575 103.735 185.092 120.634 193.056C136.435 200.502 138.093 197.328 145.058 202.724C158.478 213.12 152.609 225.119 164.371 236.281C176.618 247.903 187.185 238.881 204.699 249.931C223.205 261.607 217.281 275.387 232.531 283.487C253.897 294.835 275.714 273.197 293.875 284.624C299.367 288.08 302.878 293.525 305.141 299.476L319.575 298.392C321.73 298.23 323.743 297.259 325.213 295.673C326.682 294.087 327.499 292.004 327.499 289.84V166.993C327.499 164.871 326.711 162.826 325.287 161.254Z" fill="white" fill-opacity="0.78" style="mix-blend-mode:multiply"/>
</g>
<path style="mix-blend-mode:multiply" opacity="0.3" d="M104.473 180.811V314.548L120.321 328.987L150.049 305.153L104.473 180.811Z" fill="#393939"/>
<path d="M181.932 183.517L195.621 321.368C195.824 323.421 194.413 325.216 192.479 325.357L125.783 330.951C121.718 331.094 119.524 328.901 119.303 326.728L104.472 180.813C104.249 178.621 106.28 176.681 110.387 176.764L177.991 179.618C179.955 179.692 181.727 181.447 181.932 183.517Z" fill="#212121"/>
<path d="M184.964 183.34L198.71 321.902C198.915 323.965 197.498 325.769 195.556 325.912L126.41 330.987C124.251 331.146 122.298 329.489 122.076 327.306L107.179 180.616C106.955 178.413 108.572 176.678 110.765 176.761L181.007 179.421C182.98 179.496 184.758 181.259 184.964 183.34Z" fill="#494949"/>
<path d="M183.51 190.985L196.259 319.411C196.45 321.339 195.124 323.022 193.306 323.151L128.27 327.78C126.262 327.923 124.446 326.376 124.24 324.343L110.49 188.852C110.282 186.802 111.783 185.177 113.82 185.242L179.81 187.345C181.654 187.404 183.317 189.042 183.51 190.985Z" fill="#FFEDD8"/>
<path d="M148.533 182.493C148.607 183.234 148.085 183.815 147.365 183.791C146.645 183.767 146 183.145 145.925 182.403C145.851 181.66 146.375 181.079 147.095 181.104C147.815 181.13 148.459 181.752 148.533 182.493Z" fill="white"/>
<path d="M142.371 219.797C134.597 223.847 131.269 232.853 134.937 239.912C138.606 246.971 147.881 249.41 155.655 245.36L142.371 219.797Z" fill="#EE6E23"/>
<path d="M155.653 245.359L142.369 219.796C144.107 218.891 146.134 218.713 148.003 219.304C149.871 219.894 151.429 221.204 152.334 222.944L158.797 235.381C159.245 236.243 159.519 237.185 159.603 238.153C159.688 239.12 159.581 240.095 159.289 241.022C158.997 241.949 158.526 242.808 157.902 243.553C157.278 244.297 156.514 244.911 155.653 245.359Z" fill="#EE6E23"/>
<path d="M161.213 256.875C153.439 260.925 150.111 269.931 153.779 276.99C157.448 284.049 166.723 286.488 174.497 282.438L161.213 256.875Z" fill="#EE6E23"/>
<path d="M174.501 282.441L161.217 256.878C162.078 256.43 163.018 256.156 163.985 256.071C164.951 255.987 165.925 256.093 166.85 256.386C167.776 256.678 168.634 257.15 169.378 257.775C170.121 258.399 170.734 259.164 171.182 260.026L177.645 272.463C178.549 274.204 178.726 276.233 178.137 278.104C177.547 279.975 176.239 281.535 174.501 282.441Z" fill="#EE6E23"/>
<path d="M163.252 274.627L155.167 278.84C144.835 268.767 137.854 255.333 134.223 238.537L142.308 234.324L163.252 274.627Z" fill="#EE6E23"/>
<g style="mix-blend-mode:soft-light" opacity="0.3">
<path d="M142.129 250.131C135.257 229.8 147.218 219.557 140.444 200.725C136.759 190.479 129.381 182.846 121.265 177.162L110.767 176.765C108.574 176.682 106.957 178.417 107.181 180.62L122.079 327.309C122.3 329.493 124.253 331.15 126.412 330.991L186.11 326.609C185.922 311.293 182.036 300.392 177.714 292.643C165.838 271.349 149.245 271.184 142.129 250.131Z" fill="black"/>
</g>
<defs>
<linearGradient id="paint0_linear_106_2863" x1="87574.4" y1="97907.7" x2="149461" y2="97907.7" gradientUnits="userSpaceOnUse">
<stop stop-color="#FF9085"/>
<stop offset="1" stop-color="#FB6FBB"/>
</linearGradient>
<linearGradient id="paint1_linear_106_2863" x1="21981.9" y1="-10789.3" x2="20437.1" y2="-9588.47" gradientUnits="userSpaceOnUse">
<stop stop-color="#444B8C"/>
<stop offset="0.9964" stop-color="#3E4177"/>
</linearGradient>
<linearGradient id="paint2_linear_106_2863" x1="54927" y1="-31046.8" x2="23662" y2="-8839.42" gradientUnits="userSpaceOnUse">
<stop stop-color="#444B8C"/>
<stop offset="0.9964" stop-color="#3E4177"/>
</linearGradient>
<linearGradient id="paint3_linear_106_2863" x1="336904" y1="272928" x2="427907" y2="573711" gradientUnits="userSpaceOnUse">
<stop stop-color="#FFC444"/>
<stop offset="0.9964" stop-color="#F36F56"/>
</linearGradient>
</defs>
</svg>
