<svg width="450" height="475" viewBox="0 0 450 475" fill="none" xmlns="http://www.w3.org/2000/svg">
<path d="M6.61789 190.768C18.7942 111.086 68.7169 13.1919 167.345 2.94716C167.345 2.94716 242.228 -6.15916 316.046 7.64239C359.857 15.8336 398.273 40.2169 422.581 75.262C446.889 110.307 455.009 153.04 445.155 193.78C438.754 220.241 434.429 247.627 435.616 274.818C437.682 322.14 436.494 366.312 390.558 394.534C349.543 419.733 297.924 441.957 248.679 445.85C215.213 448.495 177.683 444.215 145.427 435.504C-18.9523 391.11 -5.55841 270.449 6.61789 190.768Z" fill="#F4F7FA"/>
<path d="M259.513 390.046C290.267 372.727 326.973 346.278 354.698 307.964C361.773 298.186 405.482 237.783 383.149 214.914C375.282 206.859 365.864 210.264 355.158 199.677C342.471 187.133 347.574 174.324 343.426 152.018C340.951 138.708 333.709 99.757 303.967 92.911C286.194 88.8201 261.191 96.3788 246.619 109.925C225.246 129.795 230.504 158.653 240.247 207.328C248.883 250.476 257.081 257.591 262.758 288.77C266.97 311.91 269.327 345.74 259.513 390.046Z" fill="#B3CEE0"/>
<g style="mix-blend-mode:soft-light" opacity="0.5">
<path d="M256.293 394.135C249.227 403.772 241.297 412.746 232.601 420.944C205.83 446.203 172.524 464.248 133.609 474.578L133.146 472.833C171.767 462.581 204.811 444.681 231.361 419.631C326.36 329.998 294.75 181.956 282.799 138.719C276.021 114.2 261.407 91.1142 239.363 70.104L240.609 68.7969C262.893 90.0359 277.674 113.4 284.54 138.238C294.382 173.846 304.557 228.438 297.134 286.3C291.74 328.342 278.039 364.469 256.293 394.135Z" fill="white"/>
</g>
<g style="mix-blend-mode:soft-light" opacity="0.5">
<path d="M297.561 212.441L296.805 212.147C296.217 211.918 237.846 188.679 223.33 134.539L225.074 134.071C238.464 184.012 289.864 207.26 296.709 210.155C337.335 130.921 309.121 83.105 299.477 70.3111C299.209 69.956 299.047 69.73 298.997 69.6417L300.564 68.7441C300.614 68.8229 300.737 68.9825 300.919 69.2243C310.754 82.271 339.604 131.105 297.934 211.72L297.561 212.441Z" fill="white"/>
</g>
<g style="mix-blend-mode:soft-light" opacity="0.5">
<path d="M365.787 236.452C354.056 252.455 333.244 271.727 296.688 286.06L296.239 286.237L295.842 285.961C295.451 285.688 256.402 258.097 230.981 204.767L205.368 151.035L206.999 150.258L232.611 203.99C256.458 254.018 292.357 281.187 296.486 284.199C339.287 267.307 360.105 243.633 370.042 226.719C380.808 208.388 381.436 193.923 381.441 193.779L383.246 193.842C383.224 194.449 382.595 208.912 371.599 227.633C369.812 230.669 367.872 233.613 365.787 236.452Z" fill="white"/>
</g>
<path d="M237.381 389.748C222.608 378.375 202.736 359.501 191.806 331.136C177.472 293.936 191.111 273.097 183.031 208.535C177.922 167.712 173.946 139.275 151.813 126.019C134.469 115.631 108.051 115.811 93.2439 128.457C80.9322 138.972 75.2058 159.337 74.2423 173.569C73.457 185.167 75.794 193.305 69.8015 199.96C63.6772 206.761 56.0774 203.992 50.2342 209.157C38.3842 219.632 48.7568 249.48 50.4332 254.304C69.0814 307.966 123.357 340.083 147.201 353.807C166.915 365.155 197.138 379.89 237.381 389.748Z" fill="#CFE0ED"/>
<g style="mix-blend-mode:soft-light" opacity="0.5">
<path d="M225.875 396.216L226.191 395.055C192.002 385.753 148.505 366.852 135.44 329.636C130.636 315.952 130.433 301.293 130.152 281.005C129.928 264.803 131.231 253.301 132.38 243.152C133.885 229.871 135.073 219.381 132.086 204.612C129.057 189.628 122.595 175.07 112.881 161.344L111.899 162.038C121.515 175.627 127.911 190.031 130.907 204.85C133.856 219.433 132.678 229.841 131.185 243.017C130.032 253.201 128.724 264.744 128.949 281.018C129.221 300.656 129.436 316.164 134.305 330.034C140.534 347.776 154.28 363.084 175.165 375.533C189.263 383.937 206.324 390.896 225.875 396.216Z" fill="white"/>
</g>
<g style="mix-blend-mode:soft-light" opacity="0.5">
<path d="M129.368 269.819L129.961 269.488C130.064 269.431 140.328 263.63 149.965 251.558C158.86 240.417 169.045 221.492 167.057 194.607L165.858 194.696C167.817 221.192 157.786 239.835 149.025 250.808C140.846 261.053 132.246 266.691 129.96 268.09C118.318 239.92 100.937 223.231 88.3595 214.173C74.6116 204.272 63.4447 201.086 63.3335 201.055L63.0102 202.213C63.1195 202.244 74.1205 205.389 87.703 215.182C100.233 224.216 117.588 240.919 129.111 269.19L129.368 269.819Z" fill="white"/>
</g>
<g style="mix-blend-mode:soft-light" opacity="0.5">
<path d="M131.361 313.545L131.572 313.162C131.662 312.998 140.729 296.568 153.042 281.877C165.27 267.287 196.522 259.576 196.836 259.5L196.552 258.331C195.254 258.646 164.6 266.214 152.12 281.105C140.782 294.633 132.182 309.622 130.733 312.198C96.5054 305.138 53.4434 230.868 53.0106 230.115L51.9679 230.715C52.0772 230.904 63.0611 249.928 78.1797 269.517C98.535 295.891 116.284 310.677 130.932 313.464L131.361 313.545Z" fill="white"/>
</g>
<g style="mix-blend-mode:soft-light" opacity="0.5">
<path d="M169.945 372.118L169.248 371.142C159.321 357.231 159.047 341.627 168.436 324.764C175.469 312.133 185.569 303.525 185.67 303.44L184.894 302.521C184.791 302.608 174.523 311.358 167.385 324.179C158.109 340.839 158.183 356.947 167.576 370.843C163.471 370.647 149.197 369.68 131.081 365.282C111.294 360.478 82.7424 350.481 59.0928 330.135L13.1187 290.582L12.3344 291.494L58.3086 331.047C82.1483 351.557 110.904 361.624 130.828 366.458C152.41 371.694 168.585 372.089 168.746 372.093L169.945 372.118Z" fill="white"/>
</g>
<path d="M168.932 400.068C145.594 402.867 115.466 403.103 85.4901 393.432C77.8403 390.964 30.5832 375.717 33.5771 354.645C34.6317 347.223 41.0309 345.346 42.6144 335.447C44.4906 323.717 36.7072 318.844 30.1539 305.23C26.2437 297.107 14.8002 273.335 28.081 257.954C36.0173 248.764 52.4235 242.985 65.5834 244.528C84.8861 246.791 93.422 264.361 107.35 294.34C119.698 320.916 118.095 327.963 127.32 346.945C134.166 361.032 146.218 380.131 168.932 400.068Z" fill="#FFC5A4"/>
<g style="mix-blend-mode:soft-light" opacity="0.5">
<path d="M172.271 400.996C179.86 403.393 187.653 405.093 195.551 406.075C219.875 409.109 244.868 405.696 269.838 395.932L269.4 394.812C244.619 404.503 219.823 407.89 195.7 404.881C109.386 394.116 68.086 302.158 57.4849 274.23C51.4732 258.393 50.2349 240.242 53.8049 220.282L52.6209 220.07C49.0121 240.247 50.2703 258.613 56.3603 274.657C65.0909 297.657 81.1166 330.984 107.882 359.144C127.33 379.604 148.912 393.619 172.271 400.996Z" fill="white"/>
</g>
<g style="mix-blend-mode:soft-light" opacity="0.5">
<path d="M78.5769 319.641L78.8675 319.186C79.0933 318.832 101.299 283.381 87.7828 248.587L86.6617 249.022C99.1294 281.117 80.6719 313.83 78.1348 318.078C25.1207 291.503 21.4526 254.717 21.5964 244.05C21.6003 243.754 21.5985 243.569 21.5904 243.502L20.3952 243.636C20.3993 243.698 20.3964 243.832 20.3937 244.034C20.2471 254.912 23.9749 292.495 78.0928 319.401L78.5769 319.641Z" fill="white"/>
</g>
<g style="mix-blend-mode:soft-light" opacity="0.5">
<path d="M51.3797 359.383C63.9811 363.363 82.7465 365.526 108.025 358.841L108.336 358.759L108.44 358.455C108.543 358.154 118.657 327.969 111.317 289.319L103.923 250.379L102.741 250.603L110.135 289.543C117.02 325.799 108.433 354.519 107.401 357.762C77.7608 365.53 57.2583 361.005 45.2622 355.829C32.2633 350.22 26.2315 342.697 26.1722 342.621L25.2274 343.366C25.4778 343.683 31.5094 351.204 44.7856 356.933C46.9408 357.861 49.1416 358.679 51.3797 359.383Z" fill="white"/>
</g>
<path d="M362.004 394.988C365.078 397.472 365.252 399.237 365.152 400.097C364.992 401.483 363.947 402.021 361.446 404.638C358.062 408.177 358.58 408.651 356.856 409.932C353.053 412.757 347.675 412.57 347.35 411.609C347.123 410.934 349.555 410.385 352.323 407.179C354.026 405.229 355.273 402.923 355.973 400.431C356.31 399.174 356.495 397.881 356.523 396.58L362.004 394.988Z" fill="#1D1D1D"/>
<path d="M351.712 387.421L357.764 397.965C359.222 398.61 360.616 398.285 361.908 396.405L359.547 383.586L351.712 387.421Z" fill="#FC9F9D"/>
<path d="M344.376 252.179C338.48 262.131 328.915 281.337 326.98 307.309C325.07 332.943 331.538 352.479 334.247 359.765C339.324 373.417 348.152 387.751 353.28 394.583C356.739 393.137 358.775 390.869 362.234 389.423C361.714 387.541 360.11 381.328 359.101 377.627C358.319 374.76 356.876 369.454 356.58 368.32C354.097 358.826 356.057 351.702 355.374 339.96C354.577 326.266 351.438 327.857 351.91 319.636C352.615 307.36 359.573 304.494 367.561 286.724C373.028 274.561 378.77 261.787 373.493 254.802C366.849 246.011 346.633 251.538 344.376 252.179Z" fill="#575757"/>
<path d="M387.044 404.633C388.888 405.805 390.001 408.592 389.161 410.346C388.335 412.071 386.23 411.526 381.118 413.097C375.643 414.779 374.559 416.479 370.523 416.475C368.892 416.474 365.936 416.193 365.689 415.097C365.515 414.326 366.77 413.559 370.903 410.783C376.769 406.843 376.708 406.732 378.018 406.128C381.307 404.61 384.61 403.085 387.044 404.633Z" fill="#1D1D1D"/>
<path d="M378.286 396.281L380.533 406.545C380.847 407.004 384.047 408.102 386.289 406.545L385.463 396.281H378.286Z" fill="#FC9F9D"/>
<path style="mix-blend-mode:multiply" opacity="0.3" d="M373.493 254.802C366.85 246.011 346.633 251.538 344.376 252.179C341.189 257.57 338.402 263.187 336.036 268.985C343.201 267.576 346.311 268.855 347.76 270.554C353.385 277.148 335.774 291.707 339.395 313.8C340.812 322.441 344.508 326.33 343.832 336.883C343.329 344.737 340.888 348.712 339.202 354.461C337.994 358.628 337.377 362.942 337.368 367.28C342.434 378.412 349.091 389.001 353.28 394.583C356.739 393.137 358.775 390.869 362.234 389.423C361.714 387.541 360.11 381.328 359.101 377.627C358.319 374.759 356.877 369.454 356.58 368.32C354.097 358.826 356.057 351.702 355.374 339.96C354.577 326.266 351.439 327.857 351.911 319.636C352.615 307.36 359.573 304.494 367.561 286.724C373.028 274.561 378.77 261.787 373.493 254.802Z" fill="url(#paint0_linear_78_1695)"/>
<path d="M360.163 257.573C359.507 283.866 360.865 310.17 364.226 336.256C367.013 357.879 371.17 379.303 376.672 400.4C377.351 400.783 379.736 402.018 382.789 401.44C384.369 401.134 385.838 400.41 387.042 399.342C386.269 393.805 386.057 388.205 386.407 382.626C387.172 370.524 390.022 368.058 391.245 355.534C392.318 344.552 391.188 335.58 390.64 331.42C388.954 318.615 386.664 318.352 386.619 310.683C386.549 298.875 391.949 294.646 394.918 283.396C396.898 275.89 397.948 264.685 392.968 249.32C382.033 252.071 371.098 254.822 360.163 257.573Z" fill="#575757"/>
<path d="M348.479 166.201C342.902 169.309 337.899 173.348 333.686 178.143C321.695 191.872 314.279 214.462 321.986 221.853C327.229 226.882 339.665 225.358 343.949 219.391C347.099 215.001 344.831 209.61 343.743 201.948C342.573 193.703 342.615 181.745 348.479 166.201Z" fill="#869CA9"/>
<path d="M395.041 254.845C390.601 196.334 376.445 172.382 377.682 165.272C375.901 163.991 368.862 161.955 352.916 164.054C349.736 165.24 346.814 167.027 344.31 169.317C343.61 169.981 342.947 170.684 342.326 171.423C353.528 173.538 364.94 179.916 369.047 188.951C376.163 206.228 362.948 225.537 369.047 240.782C372.253 248.793 377.38 255.893 383.502 262.532C390.5 260.787 395.297 258.217 395.041 254.845Z" fill="url(#paint1_linear_78_1695)"/>
<path style="mix-blend-mode:multiply" opacity="0.3" d="M392.968 249.32C389.767 250.126 386.566 250.931 383.365 251.736C385.039 257.503 386.647 266.157 384.714 275.981C382.045 289.548 375.146 292.525 374.132 304.759C373.219 315.765 378.416 318.009 380.905 332.689C383.454 347.733 379.595 354.808 378.788 367.391C378.236 376.002 379.132 387.267 384.373 400.978C385.35 400.59 386.253 400.037 387.042 399.342C386.269 393.805 386.057 388.205 386.407 382.626C387.172 370.524 390.022 368.058 391.245 355.534C392.318 344.552 391.188 335.58 390.64 331.42C388.954 318.615 386.664 318.352 386.619 310.683C386.549 298.875 391.949 294.646 394.918 283.396C396.898 275.89 397.948 264.685 392.968 249.32Z" fill="url(#paint2_linear_78_1695)"/>
<path d="M344.31 169.317C344.31 169.317 340.067 173.177 337.593 178.848C333.866 187.391 337.88 194.725 339.084 208.677C340.405 223.982 338.536 249.477 334.23 258.611C334.057 258.982 333.993 259.394 334.044 259.8C335.208 268.628 395.935 266.627 395.041 254.845C390.601 196.334 376.445 172.382 377.682 165.272C375.901 163.991 368.862 161.955 352.916 164.054C349.736 165.24 346.814 167.027 344.31 169.317Z" fill="#869CA9"/>
<path d="M362.361 149.359C362.361 149.359 366.283 161.666 367.553 163.147C368.823 164.627 362.455 168.498 357.574 166.753C353.092 165.151 357.578 158.32 357.578 158.32L362.361 149.359Z" fill="#FC9F9D"/>
<path d="M346.879 156.055C344.235 154.935 342.137 151.523 342.591 148.336C342.982 145.594 345.159 143.975 346.462 143.006C350.237 140.198 356.321 138.933 360.251 141.629C362.58 143.227 362.958 149.128 363.078 150.158C363.214 151.324 362.667 152.067 362.398 153.163C362.026 154.683 361.456 157.087 360.563 161.072C359.793 160.263 358.953 159.523 358.055 158.859C357.653 158.564 356.061 157.419 354.267 156.745C350.67 155.394 349.384 157.117 346.879 156.055Z" fill="#454545"/>
<path d="M362.718 156.91C362.718 156.91 362.583 162.811 357.088 165.531C352.167 167.965 345.319 157.736 347.042 153.728C347.617 152.391 349.46 150.908 351.372 150.417C352.502 150.126 353.064 150.34 354.901 149.83C356.594 149.36 356.916 148.956 357.577 149.073C358.404 149.219 359.475 150.131 360.345 153.776C360.72 152.337 361.602 151.357 362.582 151.275C362.928 151.265 363.27 151.352 363.569 151.525C364.935 152.355 364.724 154.548 362.718 156.91Z" fill="#FC9F9D"/>
<path d="M357.424 148.312C357.294 148.615 358.487 149.064 359.238 150.24C360.695 152.525 359.951 156.711 357.669 158.35C356.319 159.318 355.427 158.683 352.917 159.802C351.695 160.351 350.569 161.092 349.581 161.998C350.326 164.998 352.508 167.156 354.915 167.35C357.506 167.56 359.419 165.417 360.219 164.52C360.755 163.921 362.472 162.004 362.455 159.422C362.437 156.731 360.599 156.166 361.13 154.032C361.398 152.956 362.102 152.149 362.182 150.319C362.199 149.926 362.185 149.532 362.141 149.141C360.168 148.553 357.612 147.874 357.424 148.312Z" fill="#454545"/>
<path d="M351.854 161.955C351.854 161.955 353.188 161.897 354.9 160.774C354.983 160.72 355.093 160.69 355.129 160.728C355.267 160.872 354.567 162.282 353.351 162.593C352.488 162.814 351.503 162.445 351.499 162.209C351.498 162.109 351.672 162.021 351.854 161.955Z" fill="#FC9F9D"/>
<path style="mix-blend-mode:multiply" opacity="0.3" d="M377.918 203.18C371.291 205.506 362.498 212.042 361.908 220.417C361.002 233.281 380.163 240.339 377.61 249.352C376.914 251.809 374.713 254.026 360.368 259.202C354.564 261.296 349.172 263.005 344.276 264.418C361.829 267.004 395.71 263.667 395.041 254.844C393.341 232.445 390.218 215.126 387.079 201.862C383.97 201.719 380.861 202.166 377.918 203.18Z" fill="#4A4A4A" fill-opacity="0.49"/>
<path d="M357.053 229.5C367.832 240.441 383.221 243.887 395.053 238.414C411.484 230.813 414.025 209.26 410.194 195.772C403.798 173.254 375.923 160.122 367.142 166.121C360.792 170.459 360.852 187.243 368.42 195.645C375.223 203.197 385.673 201.289 388.514 208.982C390.643 214.745 386.53 220.551 386.177 221.035C381.602 227.297 371.631 229.421 362.201 225.121C360.485 226.581 358.769 228.04 357.053 229.5Z" fill="#869CA9"/>
<path d="M335.713 210.645C336.591 207.826 339.442 206.381 341.686 206.069C343.882 205.763 347.501 206.262 348.942 209.132C350.289 211.816 349.229 215.572 346.132 217.609C345.696 216.527 344.915 215.104 343.539 214.673C341.008 213.879 338.815 217.176 336.945 216.315C335.455 215.628 335.069 212.714 335.713 210.645Z" fill="#FC9F9D"/>
<path d="M346.063 227.731L354.358 229.172C354.729 229.237 355.11 229.209 355.468 229.092C355.826 228.975 356.15 228.772 356.411 228.5C356.672 228.229 356.862 227.897 356.965 227.535C357.068 227.173 357.08 226.791 357.001 226.422L353.983 212.393C353.877 211.899 353.611 211.454 353.227 211.126C352.843 210.799 352.361 210.606 351.857 210.579L341.925 210.048C341.547 210.028 341.17 210.101 340.827 210.262C340.484 210.422 340.186 210.665 339.959 210.968C339.733 211.272 339.584 211.626 339.528 212.001C339.471 212.375 339.507 212.757 339.634 213.114L344.288 226.233C344.425 226.618 344.661 226.959 344.973 227.222C345.284 227.485 345.661 227.661 346.063 227.731Z" fill="white"/>
<path d="M360.539 226.534C359.858 221.649 357.799 220.371 357.053 220.007C355.803 219.398 355.187 219.871 350.823 219.802C346.925 219.74 346.001 219.34 345.508 220.007C344.574 221.27 346.493 224.589 348.668 226.534C351.717 229.262 355.497 229.496 357.053 229.499L360.539 226.534Z" fill="#FC9F9D"/>
<path d="M280.957 50.8303L320.63 380.507C321.225 385.45 317.817 389.882 313.043 390.355L147.801 408.492C137.679 409.122 132.136 403.951 131.512 398.695L89.86 48.1931C89.2388 42.9661 94.2051 38.2325 104.371 38.2324L271.116 41.7436C275.943 41.8244 280.365 45.9132 280.957 50.8303Z" fill="#212121"/>
<path d="M288.391 50.2614L328.282 381.588C328.88 386.556 325.461 391.01 320.669 391.487L149.36 408.538C143.989 409.073 139.067 405.188 138.439 399.905L96.5529 47.592C95.9284 42.3381 99.8732 38.115 105.303 38.2065L278.511 41.1284C283.357 41.2101 287.796 45.3197 288.391 50.2614Z" fill="#494949"/>
<path d="M285.143 68.5387L322.116 375.744C322.675 380.385 319.473 384.539 314.988 384.975L153.877 400.632C148.884 401.117 144.309 397.492 143.724 392.574L105.016 67.1179C104.434 62.2256 108.096 58.2671 113.139 58.3209L275.904 60.0537C280.435 60.102 284.587 63.9199 285.143 68.5387Z" fill="#FCEBD8"/>
<path d="M198.747 50.0357C198.958 51.7994 197.692 53.2113 195.917 53.1889C194.14 53.1666 192.527 51.7156 192.315 49.9483C192.104 48.181 193.375 46.7693 195.152 46.7953C196.927 46.8212 198.535 48.2719 198.747 50.0357Z" fill="white"/>
<g style="mix-blend-mode:soft-light" opacity="0.2">
<g style="mix-blend-mode:soft-light" opacity="0.2">
<path d="M257.29 274.753C224.307 213.786 175.036 195.537 160.201 132.703C152.183 98.7396 157.646 66.2317 166.848 39.2447L105.307 38.2065C99.8776 38.115 95.9328 42.3381 96.5574 47.592L138.443 399.905C139.071 405.189 143.993 409.073 149.364 408.538L284.03 395.134C285.026 340.505 271.993 301.929 257.29 274.753Z" fill="white"/>
</g>
</g>
<path d="M165.265 420.016L165.265 420.014C165.438 419.619 179.256 388.432 228.354 321.267C248.351 293.911 239.131 243.349 229.389 189.93C219.463 135.501 209.221 79.3432 231.135 50.4597C241.234 37.1483 257.26 30.6794 279.965 30.6081L279.223 25.2773C255.064 25.3159 237.89 32.3109 226.905 46.7504C203.626 77.3527 214.093 134.782 224.239 190.446C233.764 242.706 242.779 292.167 224.088 317.669C174.336 385.553 160.779 416.212 160.224 417.49L165.265 420.016Z" fill="white"/>
<path d="M149.113 150.589L315.203 148.398L314.567 143.052L151.747 144.947L91.3073 48.6582L86.677 51.2215L149.113 150.589Z" fill="white"/>
<path d="M285.022 438.354L290.142 437.859L281.799 366.328L190.526 373.245L178.887 270.34L328.871 263.325L328.23 257.932L172.863 264.953L185.776 379.34L277.325 372.256L285.022 438.354Z" fill="white"/>
<path d="M88.4532 223.089L161.359 220.702L153.14 147.734L147.722 147.802L155.304 215.244L87.8226 217.347L88.4532 223.089Z" fill="white"/>
<path d="M210.68 147.34C211.282 152.588 215.813 156.783 220.787 156.708C225.746 156.632 229.267 152.337 228.663 147.115C228.06 141.896 223.561 137.706 218.603 137.754C213.63 137.803 210.077 142.094 210.68 147.34Z" fill="white"/>
<path d="M149.066 218.033C149.67 223.413 154.363 227.631 159.536 227.452C164.693 227.274 168.373 222.789 167.769 217.437C167.165 212.087 162.506 207.873 157.349 208.023C152.178 208.174 148.463 212.655 149.066 218.033Z" fill="white"/>
<path d="M228.403 264.999C229.012 270.289 233.541 274.382 238.506 274.141C243.457 273.9 246.966 269.437 246.357 264.174C245.748 258.914 241.252 254.824 236.301 255.037C231.337 255.252 227.795 259.711 228.403 264.999Z" fill="white"/>
<path d="M180.241 373.784C180.852 379.208 185.525 383.28 190.664 382.877C195.789 382.474 199.436 377.773 198.824 372.377C198.212 366.983 193.573 362.914 188.449 363.287C183.311 363.662 179.63 368.361 180.241 373.784Z" fill="white"/>
<path d="M229.705 104.667C225.298 100.059 218.287 100.717 216.012 100.93C213.325 101.183 208.099 101.672 204.869 105.734C199.423 112.582 203.728 124.421 205.197 128.462C208.812 138.401 215.51 144.284 219.388 147.116C219.948 147.181 221.143 147.534 221.696 146.989C224.79 143.94 228.196 137.535 230.68 130.106C231.693 127.075 236.73 112.011 229.705 104.667Z" fill="#717171"/>
<path d="M221.55 147.117C217.672 144.284 210.974 138.4 207.36 128.462C205.891 124.421 201.585 112.582 207.031 105.735C210.262 101.672 215.488 101.182 218.174 100.93C220.449 100.717 227.46 100.059 231.867 104.667C238.892 112.011 233.855 127.075 232.842 130.106C230.632 136.667 226.738 142.532 221.55 147.117Z" fill="#EE6E23"/>
<path d="M227.965 117.87C227.965 122.848 224.244 126.849 219.647 126.805C215.041 126.762 211.3 122.676 211.3 117.68C211.3 112.684 215.041 108.684 219.647 108.745C224.244 108.806 227.965 112.891 227.965 117.87Z" fill="#F4F7FA"/>
<path d="M166.843 177.591C162.436 172.983 155.425 173.641 153.151 173.854C150.464 174.106 145.238 174.596 142.008 178.658C136.562 185.506 140.867 197.345 142.336 201.386C145.95 211.324 152.649 217.207 156.527 220.04C157.087 220.104 158.282 220.458 158.835 219.913C161.929 216.864 165.335 210.459 167.819 203.03C168.832 199.999 173.868 184.934 166.843 177.591Z" fill="#717171"/>
<path d="M158.691 220.04C154.813 217.207 148.115 211.324 144.501 201.386C143.031 197.345 138.726 185.506 144.172 178.658C147.403 174.596 152.628 174.106 155.315 173.854C157.59 173.64 164.6 172.983 169.008 177.59C176.032 184.934 170.996 199.999 169.983 203.03C167.773 209.59 163.879 215.456 158.691 220.04Z" fill="#EE6E23"/>
<path d="M165.104 190.792C165.104 195.77 161.383 199.771 156.786 199.727C152.179 199.684 148.439 195.598 148.439 190.602C148.439 185.606 152.179 181.605 156.786 181.667C161.383 181.728 165.104 185.813 165.104 190.792Z" fill="#F4F7FA"/>
<path d="M246.379 229.21C241.971 224.602 234.961 225.26 232.686 225.473C229.999 225.725 224.773 226.215 221.543 230.277C216.097 237.125 220.402 248.964 221.871 253.005C225.485 262.943 232.184 268.827 236.062 271.659C236.622 271.723 237.817 272.077 238.37 271.532C241.464 268.483 244.87 262.078 247.354 254.649C248.367 251.618 253.404 236.554 246.379 229.21Z" fill="#717171"/>
<path d="M238.224 271.66C234.346 268.827 227.648 262.943 224.034 253.005C222.564 248.964 218.259 237.125 223.705 230.278C226.936 226.215 232.161 225.725 234.848 225.473C237.123 225.26 244.134 224.602 248.541 229.21C255.566 236.554 250.529 251.618 249.516 254.649C247.306 261.21 243.412 267.075 238.224 271.66Z" fill="#EE6E23"/>
<path d="M244.637 242.411C244.637 247.389 240.916 251.39 236.319 251.346C231.713 251.303 227.972 247.217 227.972 242.221C227.972 237.225 231.713 233.225 236.319 233.286C240.916 233.347 244.637 237.432 244.637 242.411Z" fill="#F4F7FA"/>
<path d="M201.129 331.282C196.721 326.674 189.711 327.332 187.436 327.545C184.749 327.798 179.523 328.287 176.293 332.35C170.847 339.197 175.152 351.037 176.621 355.077C180.236 365.016 186.934 370.899 190.812 373.732C191.372 373.796 192.567 374.149 193.12 373.604C196.214 370.555 199.62 364.15 202.104 356.721C203.117 353.69 208.154 338.626 201.129 331.282Z" fill="#717171"/>
<path d="M192.974 373.732C189.096 370.899 182.398 365.016 178.784 355.077C177.314 351.037 173.009 339.197 178.455 332.35C181.686 328.288 186.911 327.798 189.598 327.545C191.873 327.332 198.884 326.674 203.291 331.282C210.316 338.626 205.279 353.69 204.266 356.721C202.056 363.282 198.162 369.147 192.974 373.732Z" fill="#EE6E23"/>
<path d="M199.387 344.483C199.387 349.462 195.666 353.462 191.069 353.419C186.463 353.375 182.722 349.29 182.722 344.294C182.722 339.297 186.463 335.297 191.069 335.358C195.666 335.419 199.387 339.504 199.387 344.483Z" fill="#F4F7FA"/>
<defs>
<linearGradient id="paint0_linear_78_1695" x1="41510.8" y1="370993" x2="106332" y2="300633" gradientUnits="userSpaceOnUse">
<stop stop-color="#AA80F9"/>
<stop offset="0.9964" stop-color="#6165D7"/>
</linearGradient>
<linearGradient id="paint1_linear_78_1695" x1="-86507.7" y1="101785" x2="-119923" y2="164663" gradientUnits="userSpaceOnUse">
<stop stop-color="#311944"/>
<stop offset="1" stop-color="#893976"/>
</linearGradient>
<linearGradient id="paint2_linear_78_1695" x1="39698.7" y1="340909" x2="64426.2" y2="335115" gradientUnits="userSpaceOnUse">
<stop stop-color="#AA80F9"/>
<stop offset="0.9964" stop-color="#6165D7"/>
</linearGradient>
</defs>
</svg>
