<?xml version="1.0" standalone="no"?>
<!DOCTYPE svg PUBLIC "-//W3C//DTD SVG 20010904//EN"
 "http://www.w3.org/TR/2001/REC-SVG-20010904/DTD/svg10.dtd">
<svg version="1.0" xmlns="http://www.w3.org/2000/svg"
 width="880.000000pt" height="880.000000pt" viewBox="0 0 880.000000 880.000000"
 preserveAspectRatio="xMidYMid meet">
<metadata>
Created by potrace 1.14, written by Peter Selinger 2001-2017
</metadata>
<g transform="translate(0.000000,880.000000) scale(0.100000,-0.100000)"
fill="#000000" stroke="none">
<path d="M2808 8785 c-2 -2 -39 -6 -82 -10 -43 -4 -88 -9 -100 -11 -12 -3 -40
-6 -63 -8 -23 -3 -50 -7 -60 -10 -10 -3 -29 -7 -43 -10 -14 -2 -63 -14 -110
-26 -47 -12 -89 -23 -95 -24 -28 -6 -122 -40 -132 -49 -7 -5 -13 -7 -13 -4 0
22 -417 -187 -428 -215 -2 -4 -8 -8 -13 -8 -10 0 -171 -116 -225 -162 -96 -82
-262 -247 -282 -280 -9 -16 -22 -28 -29 -28 -7 0 -13 -4 -13 -9 0 -5 -20 -34
-44 -63 -213 -262 -415 -701 -462 -1003 -3 -22 -7 -42 -9 -45 -2 -3 -6 -26
-10 -50 -3 -25 -8 -56 -10 -70 -15 -100 -20 -197 -20 -415 0 -260 6 -356 32
-480 2 -11 8 -42 13 -70 47 -263 189 -602 351 -843 27 -40 49 -75 49 -78 0 -3
11 -16 25 -30 14 -14 25 -28 25 -32 0 -7 4 -12 100 -122 132 -152 328 -325
487 -430 41 -28 77 -50 80 -50 3 0 17 -8 31 -18 97 -68 429 -208 563 -238 11
-2 27 -6 37 -8 67 -17 216 -46 262 -51 30 -4 66 -9 80 -13 14 -3 459 -7 990
-9 1749 -6 2245 -9 2273 -16 29 -7 58 -13 120 -23 20 -4 40 -11 43 -15 3 -5
14 -9 25 -9 47 0 261 -113 344 -182 184 -154 331 -377 381 -577 22 -90 33
-143 38 -181 4 -25 9 -58 12 -74 6 -35 7 -271 1 -341 -7 -83 -18 -147 -34
-210 -9 -33 -17 -67 -18 -75 -2 -14 -6 -27 -24 -75 -34 -89 -117 -242 -168
-306 -45 -59 -194 -199 -248 -236 -91 -61 -227 -128 -285 -140 -17 -3 -33 -10
-36 -14 -3 -5 -9 -7 -14 -4 -5 3 -20 1 -33 -4 -24 -10 -53 -14 -162 -28 -27
-4 -234 -7 -460 -7 l-410 -1 -5 1075 -5 1075 -25 -1 c-14 0 -30 -3 -36 -6 -5
-4 -16 -3 -23 2 -8 4 -26 4 -41 0 -15 -4 -33 -4 -41 0 -7 5 -16 7 -19 5 -8 -5
-37 -5 -187 -4 -61 1 -116 -2 -121 -5 -6 -4 -13 -2 -17 4 -4 7 -12 7 -24 0
-10 -5 -21 -7 -24 -4 -7 8 -117 11 -117 4 0 -3 -17 -4 -37 -3 -21 1 -38 2 -38
3 0 1 -26 2 -58 3 -31 1 -57 -2 -57 -6 0 -5 -5 -5 -11 -1 -7 4 -41 6 -75 5
-35 0 -72 -1 -81 -1 -10 0 -29 0 -43 -1 -14 0 -32 0 -40 0 -8 1 -31 1 -50 0
-19 -1 -39 -1 -45 0 -5 0 -27 2 -48 3 -21 2 -42 -1 -46 -7 -4 -5 -7 -766 -7
-1690 l1 -1680 1105 1 c608 0 1134 4 1170 7 101 9 205 23 205 27 0 1 12 3 26
5 65 8 98 15 123 24 14 6 26 9 26 7 0 -2 27 4 60 14 33 10 60 16 60 13 0 -3 6
-1 13 4 6 6 25 13 41 17 84 20 317 124 423 188 35 21 65 38 69 38 3 0 12 6 19
12 32 29 45 38 45 33 0 -8 207 152 259 199 303 281 505 562 638 891 40 98 90
242 97 281 2 10 11 47 20 80 9 34 18 77 20 95 3 19 5 34 6 34 2 0 7 24 15 77
35 226 39 585 10 815 -4 29 -17 108 -32 196 -2 16 -11 46 -18 67 -7 21 -11 40
-8 43 2 3 0 14 -6 25 -5 10 -12 30 -15 43 -7 40 -77 241 -97 281 -11 21 -19
44 -19 51 0 8 -7 20 -15 27 -9 7 -14 15 -11 17 2 3 -11 32 -30 65 -19 33 -34
62 -34 64 0 3 -16 30 -35 60 -19 30 -35 59 -35 64 0 6 -4 10 -10 10 -5 0 -10
6 -10 14 0 8 -3 16 -7 18 -5 2 -23 26 -42 53 -105 152 -311 372 -458 490 -49
38 -90 72 -93 75 -3 3 -26 19 -52 35 -27 17 -48 33 -48 38 0 4 -4 7 -10 7 -5
0 -34 16 -65 35 -113 72 -334 175 -460 212 -27 8 -54 18 -60 21 -5 4 -19 7
-30 9 -11 1 -54 11 -95 22 -41 11 -91 22 -110 25 -19 3 -48 8 -65 11 -79 13
-97 16 -156 21 -35 4 -97 7 -136 8 -40 0 -73 3 -73 6 0 3 -24 4 -52 3 -110 -3
-256 -4 -353 -2 -27 0 -81 0 -120 0 -38 -1 -92 -1 -120 0 -27 1 -81 1 -120 0
-38 -1 -92 -1 -120 0 -27 0 -81 0 -120 0 -38 -1 -92 -1 -120 0 -27 1 -81 1
-120 0 -38 -1 -92 -1 -120 0 -27 0 -81 0 -120 0 -38 -1 -92 -1 -120 0 -45 1
-174 0 -200 -2 -5 0 -50 0 -100 0 -49 1 -99 1 -110 1 -55 -1 -152 -1 -165 -1
-8 1 -44 1 -80 0 -36 0 -72 0 -80 0 -8 1 -44 1 -80 0 -36 0 -72 0 -80 0 -24 1
-144 0 -155 0 -73 -3 -372 12 -410 20 -27 6 -62 13 -76 15 -41 7 -199 63 -249
88 -54 28 -148 88 -187 120 -63 51 -172 167 -216 229 -82 115 -169 313 -190
434 -3 17 -8 39 -10 50 -29 127 -29 489 0 610 3 11 9 38 13 60 24 106 45 164
105 285 25 52 48 93 55 100 3 3 19 25 35 49 53 79 211 230 284 271 14 8 28 18
31 21 4 6 128 71 140 74 3 1 12 4 20 8 49 20 128 43 180 53 14 2 31 7 39 10
39 13 182 18 561 19 l415 0 0 -1070 0 -1070 658 -3 657 -2 0 1689 0 1690
-1110 -1 c-610 0 -1111 -2 -1112 -3z"/>
</g>
</svg>
